<?xml version="1.0" encoding="UTF-8"?>
<!DOCTYPE svg PUBLIC "-//W3C//DTD SVG 1.1//EN" "http://www.w3.org/Graphics/SVG/1.1/DTD/svg11.dtd">
<!-- Creator: CorelDRAW X8 -->
<svg xmlns="http://www.w3.org/2000/svg" xml:space="preserve" width="400mm" height="297mm" version="1.1" style="shape-rendering:geometricPrecision; text-rendering:geometricPrecision; image-rendering:optimizeQuality; fill-rule:evenodd; clip-rule:evenodd"
viewBox="0 0 40000 29700"
 xmlns:xlink="http://www.w3.org/1999/xlink">
 <defs>
  <style type="text/css">
   <![CDATA[
    .fil1 {fill:#116E64}
    .fil2 {fill:#1F1B20}
    .fil0 {fill:#1E3A6A}
   ]]>
  </style>
 </defs>
 <g id="Katman_x0020_1">
  <metadata id="CorelCorpID_0Corel-Layer"/>
  <path class="fil0" d="M11928 22002l204 0c44,-538 6,-1219 8,-1773 3,-1386 36,-12229 -21,-12395l-188 5 -3 14163z"/>
  <path class="fil1" d="M4434 12453c114,-26 73,-31 177,-277 308,-727 713,-1365 1119,-2028 222,-361 488,-734 734,-1065 138,-184 253,-328 389,-511 61,-83 321,-431 406,-491l0 745c0,307 53,181 -351,595 -383,392 -377,296 -377,595l-4 1588c-141,79 -267,127 -257,342 8,164 125,296 307,303 364,12 505,-493 81,-638l-4 -1568c0,-258 -1,-183 250,-440 120,-123 228,-234 350,-346 25,955 5,2297 5,3249 -475,233 -229,650 59,651 169,1 311,-118 326,-284 20,-237 -118,-285 -258,-370l-2 -2179c64,18 477,455 571,531l4 1040c-123,92 -276,123 -256,370 32,398 611,380 642,-3 20,-244 -196,-315 -256,-367l-4 -609c0,-537 58,-402 -232,-694 -101,-101 -362,-389 -466,-453l-1 -1984 81 73c29,32 38,42 76,82l430 521c323,409 1409,1924 1477,2270 -117,166 -426,416 -504,516 -79,101 -39,344 -39,490l2 981 -347 4c-125,0 -447,357 -516,452 -203,-35 -333,-67 -454,80 -104,127 -79,331 25,433 240,237 663,34 507,-416 56,-82 180,-201 249,-268 206,-200 157,-163 480,-163 100,1 155,18 177,-74l1 -1296c1,-191 48,-189 144,-284 134,-133 303,-284 420,-428 62,-209 -1332,-2123 -1557,-2413 -93,-120 -200,-251 -298,-364 -348,-402 -219,-202 -352,-266l-9 -233c-140,-21 -129,33 -263,189 -78,91 -140,171 -213,264 -152,190 -269,347 -414,539 -609,805 -1410,2030 -1830,2932 -54,116 -98,209 -151,326 -25,54 -52,109 -75,165 -36,91 -49,120 1,186z"/>
  <path class="fil1" d="M7318 22009c84,-34 62,34 70,-136l-4 -3020c-3,-318 31,-265 193,-428 538,-541 393,-458 832,-454 121,416 665,297 636,-96 -27,-353 -526,-424 -645,-33 -474,8 -355,-64 -616,207 -30,31 -348,347 -401,369l1 -1007c149,-80 292,-141 257,-381 -57,-386 -642,-349 -642,51 -1,246 153,237 260,344l-11 1217 -671 -655c-7,-150 -27,-646 -15,-738 31,-256 -22,-435 -280,-450 -513,-29 -438,840 164,602l2 615c118,97 200,192 302,295 321,327 514,414 511,700l-2 2913c17,82 -10,52 59,85z"/>
  <path class="fil1" d="M8829 13532c-195,-38 -348,-74 -465,98 -217,320 199,665 482,427 157,-132 99,-258 68,-434 524,-516 426,-310 427,-1120 0,-884 -83,-667 305,-1051 88,64 188,279 246,383 239,434 435,924 578,1406 210,706 329,1511 327,2332l-7 317c-7,117 -35,215 21,296 152,-28 110,-422 108,-666 -9,-1141 -215,-2213 -672,-3246 -89,-200 -424,-909 -574,-996 -76,30 -353,300 -409,367 -126,151 4,1272 -55,1483 -22,78 -316,338 -380,404z"/>
  <path class="fil1" d="M9011 15541c-54,-73 -108,-279 -365,-257 -395,35 -386,641 25,652 217,5 252,-132 340,-256 311,-30 305,29 450,184 666,715 498,540 1275,551 -29,385 -243,834 -406,1111 -485,823 -1607,1402 -2569,1505 -316,33 -250,5 -257,113 183,113 1075,-181 1279,-254 386,-139 716,-344 995,-566 276,-220 518,-476 722,-840 99,-175 181,-358 242,-551 47,-146 174,-491 101,-644 -990,-3 -650,117 -1228,-446 -83,-81 -141,-147 -224,-226 -120,-116 -179,-66 -380,-76z"/>
  <path class="fil1" d="M5781 16048c207,33 288,94 441,-63 122,-123 113,-310 6,-433 -215,-247 -688,-65 -522,391 -151,235 -355,165 -875,165 -587,-1 -445,-37 -756,270 -237,233 -289,162 -100,685 261,723 805,1286 1468,1629 218,113 1335,553 1577,424 -17,-131 -82,-98 -225,-114 -573,-67 -1271,-362 -1718,-685 -453,-327 -951,-921 -1088,-1660 75,-99 203,-212 297,-307 163,-163 199,-113 492,-115 638,-3 804,92 1003,-187z"/>
  <path class="fil1" d="M3879 16395c60,-100 -26,-327 -41,-469 -95,-886 74,-1623 296,-2454 78,-289 197,-549 273,-818 391,-26 329,-30 734,385 169,173 382,408 556,555 -34,188 -104,289 68,437 304,262 720,-165 456,-458 -145,-161 -249,-95 -441,-68l-908 -909c-103,-101 -366,-95 -541,-59 -335,623 -640,2058 -638,2877 0,192 3,372 24,557 28,259 23,408 162,424z"/>
  <path class="fil1" d="M6637 13757c125,32 46,10 75,-13 -722,-888 -646,-93 -637,-1797 1,-262 -86,-270 -213,-397 -148,-148 61,-283 -149,-405 -155,-91 -335,12 -347,173 -18,259 195,228 397,229 222,393 231,-183 223,1300 -3,411 67,340 447,727 62,63 134,151 204,183z"/>
  <path class="fil1" d="M4857 13633c222,-9 206,23 460,289 131,137 253,249 385,383 49,49 326,341 381,363 86,35 646,50 727,-21 -97,-121 -510,21 -693,-67l-770 -767c-302,-303 -209,-264 -490,-276 -71,-81 -97,-177 -237,-179 -125,-3 -225,95 -233,207 -8,112 70,220 182,240 77,14 127,7 182,-32 41,-29 22,-18 50,-56l56 -84z"/>
  <path class="fil1" d="M9908 13976c-865,25 -569,-133 -1153,441 -277,272 -185,217 -749,216 -176,0 -129,-23 -174,84 802,62 728,54 1100,-334 56,-58 277,-292 326,-308 70,-23 560,-13 653,-3 229,355 448,106 455,-35 12,-246 -298,-363 -458,-61z"/>
  <path class="fil1" d="M5836 15117c206,0 834,26 974,-17 -17,-69 19,-67 -99,-79 -30,-3 -122,2 -160,3l-1945 -3c-92,-281 -428,-208 -446,23 -15,198 245,425 459,78l1217 -5z"/>
  <path class="fil1" d="M7837 15070c46,30 -50,34 114,50l2066 0c67,78 109,190 259,178 276,-22 288,-437 0,-457 -148,-10 -190,97 -259,180 -361,15 -748,3 -1111,2 -185,-1 -371,1 -556,1 -135,0 -429,-54 -513,46z"/>
  <path class="fil1" d="M5069 16915c169,-8 590,40 701,-34l713 -715c81,-80 320,-268 322,-374 -96,-7 -121,50 -185,114l-436 438c-395,402 -375,472 -718,472l-397 0c-82,-82 -94,-189 -262,-182 -430,20 -122,758 223,327l26 -31c2,-9 8,-10 13,-15z"/>
  <path class="fil1" d="M8499 11239c0,1410 164,1093 -552,1788 -74,73 -167,138 -96,190 40,29 621,-573 681,-637 99,-109 59,-379 59,-632 0,-239 1,-478 1,-716 272,-120 208,-435 -32,-449 -202,-11 -403,266 -61,456z"/>
  <path class="fil1" d="M8193 16073c-121,-125 -226,-274 -348,-289 -9,116 210,289 293,372 71,71 223,268 345,279 170,15 454,-1 635,-2 322,-2 235,92 423,225 -6,139 -52,217 52,319 188,186 494,-57 344,-292 -70,-109 -204,-91 -346,-78 -137,-181 -220,-262 -392,-263 -739,-2 -649,99 -1006,-271z"/>
  <path class="fil1" d="M6637 13757c38,73 60,131 174,125 -17,-104 -23,-90 -99,-138 -29,23 50,45 -75,13z"/>
  <path class="fil0" d="M14267 12386l3037 0c435,0 765,-98 986,-290 222,-192 334,-471 334,-841 0,-362 -112,-645 -334,-848 -221,-199 -536,-301 -938,-301l-3085 0 0 2280zm-856 3821l0 0 0 -6895 3951 0c675,0 1204,171 1588,508 381,341 573,812 573,1410 0,500 -149,928 -450,1283 -300,355 -696,576 -1185,667l1722 3027 -950 0 -1722 -3016 -2671 0 0 3016 -856 0zm8530 -4172l0 0 3295 0c362,0 641,-84 833,-247 192,-163 287,-399 287,-707 0,-326 -95,-569 -279,-732 -185,-163 -468,-243 -841,-243l-3295 0 0 1929zm0 3378l0 0 3610 0c388,0 696,-116 924,-348 225,-228 337,-544 337,-943 0,-395 -112,-710 -337,-946 -228,-232 -536,-348 -924,-348l-3610 0 0 2585zm-856 794l0 0 0 -6895 4078 0c678,0 1193,145 1541,435 344,290 518,718 518,1284 0,275 -54,521 -160,735 -108,218 -264,392 -463,526 366,214 645,471 833,779 185,308 279,664 279,1062 0,638 -210,1142 -627,1516 -420,373 -989,558 -1703,558l-4296 0zm8312 0l0 0 0 -6895 790 0 2788 4223 2802 -4223 779 0 0 6895 -848 0 0 -5383 -2733 4078 -2737 -4078 0 5383 -841 0z"/>
  <path class="fil2" d="M13410 20800l0 -1940 252 0 795 1136 796 -1136 252 0 0 1940 -302 0 0 -1395 -746 1080 -742 -1080 0 1395 -305 0zm2762 -1936l0 0 305 0 0 1244c0,186 43,311 132,376 88,66 262,99 522,99 263,0 437,-33 525,-99 88,-65 132,-190 132,-376l0 -1244 302 0 0 1323c0,238 -75,409 -226,516 -151,107 -397,159 -737,159 -339,0 -583,-52 -732,-157 -149,-104 -223,-277 -223,-518l0 -1323zm2889 1034l0 0 0 902 -305 0 0 -1940 305 0 0 755 1362 0 0 -755 302 0 0 1940 -302 0 0 -902 -1362 0zm2324 902l0 0 0 -1940 1820 0 0 284 -1516 0 0 484 995 0 0 279 -995 0 0 614 1599 0 0 279 -1903 0zm2340 0l0 0 0 -1940 159 0 1234 1363 0 -1363 298 0 0 1940 -160 0 -1231 -1358 0 1358 -300 0zm3219 -1940l0 0c317,0 573,91 767,272 194,181 290,417 290,706 0,291 -95,525 -285,700 -190,175 -447,262 -772,262l-861 0 0 -1940 861 0zm6 280l0 0 -562 0 0 1381 562 0c229,0 410,-62 542,-186 132,-123 198,-290 198,-503 0,-204 -69,-370 -205,-500 -136,-128 -315,-192 -535,-192zm1535 1660l0 0 0 -1945 309 0 0 1945 -309 0zm811 -248l0 0 148 -254c133,90 279,159 436,210 157,50 309,75 453,75 173,0 311,-36 418,-107 105,-70 158,-161 158,-270 0,-111 -49,-193 -145,-247 -96,-54 -249,-83 -459,-90 -353,-4 -596,-45 -727,-122 -132,-78 -198,-206 -198,-384 0,-168 73,-302 218,-404 144,-101 338,-152 582,-152 167,0 328,24 485,70 157,48 308,118 454,210l-153 252c-121,-82 -252,-145 -391,-190 -139,-43 -273,-66 -399,-66 -147,0 -265,25 -355,77 -90,51 -135,120 -135,203 0,85 45,147 136,183 90,36 246,54 469,54 310,0 543,53 700,157 157,104 236,260 236,466 0,183 -79,336 -239,457 -159,122 -368,182 -622,182 -188,0 -374,-27 -559,-81 -186,-54 -357,-130 -511,-229zm2471 248l0 0 0 -1940 304 0 0 1661 1441 0 0 279 -1745 0zm2094 0l0 0 0 -1945 309 0 0 1945 -309 0zm981 0l0 0 0 -1936 305 0 0 861 1028 -861 399 0 -814 689 937 1247 -342 0 -808 -1069 -400 337 0 732 -305 0z"/>
  <polygon class="fil2" points="16657,18821 16962,18821 16962,18525 16657,18525 "/>
  <polygon class="fil2" points="17287,18821 17591,18821 17591,18525 17287,18525 "/>
  <polygon class="fil2" points="28489,18731 28794,18731 28794,18435 28489,18435 "/>
  <polygon class="fil2" points="33863,18731 34168,18731 34168,18435 33863,18435 "/>
 </g>
</svg>
